Oxanium-ExtraLight.ufo
<glyph name="parenright" format="2">
  <advance width="288"/>
  <unicode hex="0029"/>
  <outline>
    <contour>
      <point x="22" y="-158" type="line"/>
      <point x="167" y="39"/>
      <point x="167" y="541"/>
      <point x="22" y="738" type="qcurve"/>
      <point x="55" y="764" type="line"/>
      <point x="212" y="554"/>
      <point x="212" y="26"/>
      <point x="55" y="-184" type="qcurve"/>
    </contour>
  </outline>
</glyph>
<glyph name="comma" format="2">
  <advance width="249"/>
  <unicode hex="002C"/>
  <outline>
    <contour>
      <point x="38" y="-126" type="line"/>
      <point x="92" y="86" type="line"/>
      <point x="143" y="86" type="line"/>
      <point x="149" y="76" type="line"/>
      <point x="75" y="-134" type="line"/>
    </contour>
  </outline>
</glyph>
<glyph name="hyphen" format="2">
  <advance width="348"/>
  <unicode hex="002D"/>
  <outline>
    <contour>
      <point x="40" y="284" type="line"/>
      <point x="40" y="326" type="line"/>
      <point x="308" y="326" type="line"/>
      <point x="308" y="284" type="line"/>
    </contour>
  </outline>
</glyph>
<glyph name="period" format="2">
  <advance width="249"/>
  <unicode hex="002E"/>
  <outline>
    <contour>
      <point x="92" y="0" type="line"/>
      <point x="92" y="86" type="line"/>
      <point x="158" y="86" type="line"/>
      <point x="158" y="0" type="line"/>
    </contour>
  </outline>
</glyph>
<glyph name="nine" format="2">
  <advance width="578"/>
  <unicode hex="0039"/>
  <outline>
    <contour>
      <point x="71" y="436" type="qcurve" smooth="yes"/>
      <point x="71" y="546" type="line" smooth="yes"/>
      <point x="71" y="690"/>
      <point x="215" y="690" type="qcurve" smooth="yes"/>
      <point x="363" y="690" type="line" smooth="yes"/>
      <point x="507" y="690"/>
      <point x="507" y="546" type="qcurve" smooth="yes"/>
      <point x="507" y="173" type="line" smooth="yes"/>
      <point x="507" y="0"/>
      <point x="334" y="0" type="qcurve" smooth="yes"/>
      <point x="133" y="0" type="line"/>
      <point x="101" y="25" type="line"/>
      <point x="101" y="44" type="line"/>
      <point x="338" y="44" type="line" smooth="yes"/>
      <point x="459" y="44"/>
      <point x="459" y="165" type="qcurve" smooth="yes"/>
      <point x="459" y="292" type="line"/>
      <point x="215" y="292" type="line" smooth="yes"/>
      <point x="71" y="292"/>
    </contour>
    <contour>
      <point x="119" y="427" type="line" smooth="yes"/>
      <point x="119" y="336"/>
      <point x="210" y="336" type="qcurve" smooth="yes"/>
      <point x="459" y="336" type="line"/>
      <point x="459" y="556" type="line" smooth="yes"/>
      <point x="459" y="646"/>
      <point x="368" y="646" type="qcurve" smooth="yes"/>
      <point x="210" y="646" type="line" smooth="yes"/>
      <point x="119" y="646"/>
      <point x="119" y="556" type="qcurve" smooth="yes"/>
    </contour>
  </outline>
</glyph>
<glyph name="question" format="2">
  <advance width="486"/>
  <unicode hex="003F"/>
  <outline>
    <contour>
      <point x="40" y="646" type="line"/>
      <point x="40" y="665" type="line"/>
      <point x="72" y="690" type="line"/>
      <point x="292" y="690" type="line" smooth="yes"/>
      <point x="436" y="690"/>
      <point x="436" y="546" type="qcurve" smooth="yes"/>
      <point x="436" y="452" type="line" smooth="yes"/>
      <point x="436" y="308"/>
      <point x="292" y="308" type="qcurve" smooth="yes"/>
      <point x="229" y="308" type="line"/>
      <point x="229" y="203" type="line"/>
      <point x="181" y="203" type="line"/>
      <point x="181" y="352" type="line"/>
      <point x="297" y="352" type="line" smooth="yes"/>
      <point x="388" y="352"/>
      <point x="388" y="443" type="qcurve" smooth="yes"/>
      <point x="388" y="556" type="line" smooth="yes"/>
      <point x="388" y="646"/>
      <point x="297" y="646" type="qcurve" smooth="yes"/>
    </contour>
    <contour>
      <point x="172" y="0" type="line"/>
      <point x="172" y="86" type="line"/>
      <point x="238" y="86" type="line"/>
      <point x="238" y="0" type="line"/>
    </contour>
  </outline>
</glyph>
<glyph name="E" format="2">
  <advance width="582"/>
  <unicode hex="0045"/>
  <anchor x="314" y="690" name="top"/>
  <anchor x="314" y="0" name="bottom"/>
  <outline>
    <contour>
      <point x="95" y="0" type="line"/>
      <point x="95" y="690" type="line"/>
      <point x="532" y="690" type="line"/>
      <point x="532" y="646" type="line"/>
      <point x="143" y="646" type="line"/>
      <point x="143" y="388" type="line"/>
      <point x="502" y="388" type="line"/>
      <point x="502" y="344" type="line"/>
      <point x="143" y="344" type="line"/>
      <point x="143" y="44" type="line"/>
      <point x="532" y="44" type="line"/>
      <point x="532" y="0" type="line"/>
    </contour>
  </outline>
</glyph>
<glyph name="G" format="2">
  <advance width="665"/>
  <unicode hex="0047"/>
  <anchor x="338" y="690" name="top"/>
  <anchor x="338" y="0" name="bottom"/>
  <outline>
    <contour>
      <point x="85" y="144" type="qcurve" smooth="yes"/>
      <point x="85" y="546" type="line" smooth="yes"/>
      <point x="85" y="690"/>
      <point x="229" y="690" type="qcurve" smooth="yes"/>
      <point x="539" y="690" type="line"/>
      <point x="570" y="665" type="line"/>
      <point x="570" y="646" type="line"/>
      <point x="224" y="646" type="line" smooth="yes"/>
      <point x="133" y="646"/>
      <point x="133" y="556" type="qcurve" smooth="yes"/>
      <point x="133" y="134" type="line" smooth="yes"/>
      <point x="133" y="44"/>
      <point x="224" y="44" type="qcurve" smooth="yes"/>
      <point x="542" y="44" type="line"/>
      <point x="542" y="344" type="line"/>
      <point x="350" y="344" type="line"/>
      <point x="350" y="388" type="line"/>
      <point x="590" y="388" type="line"/>
      <point x="590" y="0" type="line"/>
      <point x="229" y="0" type="line" smooth="yes"/>
      <point x="85" y="0"/>
    </contour>
  </outline>
</glyph>
<glyph name="H" format="2">
  <advance width="695"/>
  <unicode hex="0048"/>
  <anchor x="348" y="690" name="top"/>
  <anchor x="348" y="0" name="bottom"/>
  <outline>
    <contour>
      <point x="95" y="0" type="line"/>
      <point x="95" y="690" type="line"/>
      <point x="143" y="690" type="line"/>
      <point x="143" y="388" type="line"/>
      <point x="552" y="388" type="line"/>
      <point x="552" y="690" type="line"/>
      <point x="600" y="690" type="line"/>
      <point x="600" y="0" type="line"/>
      <point x="552" y="0" type="line"/>
      <point x="552" y="344" type="line"/>
      <point x="143" y="344" type="line"/>
      <point x="143" y="0" type="line"/>
    </contour>
  </outline>
</glyph>
<glyph name="Q" format="2">
  <advance width="695"/>
  <unicode hex="0051"/>
  <anchor x="348" y="690" name="top"/>
  <anchor x="348" y="-150" name="bottom"/>
  <outline>
    <contour>
      <point x="85" y="144" type="qcurve" smooth="yes"/>
      <point x="85" y="546" type="line" smooth="yes"/>
      <point x="85" y="690"/>
      <point x="229" y="690" type="qcurve" smooth="yes"/>
      <point x="466" y="690" type="line" smooth="yes"/>
      <point x="610" y="690"/>
      <point x="610" y="546" type="qcurve" smooth="yes"/>
      <point x="610" y="143" type="line" smooth="yes"/>
      <point x="610" y="2"/>
      <point x="469" y="0" type="qcurve"/>
      <point x="538" y="-136" type="line"/>
      <point x="531" y="-150" type="line"/>
      <point x="492" y="-150" type="line"/>
      <point x="416" y="0" type="line"/>
      <point x="229" y="0" type="line" smooth="yes"/>
      <point x="85" y="0"/>
    </contour>
    <contour>
      <point x="133" y="134" type="line" smooth="yes"/>
      <point x="133" y="44"/>
      <point x="224" y="44" type="qcurve" smooth="yes"/>
      <point x="472" y="44" type="line" smooth="yes"/>
      <point x="562" y="44"/>
      <point x="562" y="134" type="qcurve" smooth="yes"/>
      <point x="562" y="556" type="line" smooth="yes"/>
      <point x="562" y="646"/>
      <point x="472" y="646" type="qcurve" smooth="yes"/>
      <point x="224" y="646" type="line" smooth="yes"/>
      <point x="133" y="646"/>
      <point x="133" y="556" type="qcurve" smooth="yes"/>
    </contour>
  </outline>
</glyph>
<glyph name="T" format="2">
  <advance width="580"/>
  <unicode hex="0054"/>
  <anchor x="290" y="690" name="top"/>
  <anchor x="290" y="0" name="bottom"/>
  <outline>
    <contour>
      <point x="24" y="646" type="line"/>
      <point x="24" y="690" type="line"/>
      <point x="556" y="690" type="line"/>
      <point x="556" y="646" type="line"/>
      <point x="314" y="646" type="line"/>
      <point x="314" y="0" type="line"/>
      <point x="266" y="0" type="line"/>
      <point x="266" y="646" type="line"/>
    </contour>
  </outline>
</glyph>
<glyph name="U" format="2">
  <advance width="683"/>
  <unicode hex="0055"/>
  <anchor x="342" y="690" name="top"/>
  <anchor x="342" y="0" name="bottom"/>
  <outline>
    <contour>
      <point x="89" y="144" type="qcurve" smooth="yes"/>
      <point x="89" y="690" type="line"/>
      <point x="137" y="690" type="line"/>
      <point x="137" y="134" type="line" smooth="yes"/>
      <point x="137" y="44"/>
      <point x="228" y="44" type="qcurve" smooth="yes"/>
      <point x="456" y="44" type="line" smooth="yes"/>
      <point x="546" y="44"/>
      <point x="546" y="134" type="qcurve" smooth="yes"/>
      <point x="546" y="690" type="line"/>
      <point x="594" y="690" type="line"/>
      <point x="594" y="144" type="line" smooth="yes"/>
      <point x="594" y="0"/>
      <point x="450" y="0" type="qcurve" smooth="yes"/>
      <point x="233" y="0" type="line" smooth="yes"/>
      <point x="89" y="0"/>
    </contour>
  </outline>
</glyph>
<glyph name="V" format="2">
  <advance width="598"/>
  <unicode hex="0056"/>
  <anchor x="299" y="690" name="top"/>
  <anchor x="299" y="0" name="bottom"/>
  <outline>
    <contour>
      <point x="21" y="677" type="line"/>
      <point x="30" y="690" type="line"/>
      <point x="68" y="690" type="line"/>
      <point x="285" y="44" type="line"/>
      <point x="314" y="44" type="line"/>
      <point x="531" y="690" type="line"/>
      <point x="569" y="690" type="line"/>
      <point x="577" y="677" type="line"/>
      <point x="346" y="0" type="line"/>
      <point x="252" y="0" type="line"/>
    </contour>
  </outline>
</glyph>
<glyph name="X" format="2">
  <advance width="588"/>
  <unicode hex="0058"/>
  <outline>
    <contour>
      <point x="31" y="13" type="line"/>
      <point x="266" y="355" type="line"/>
      <point x="44" y="677" type="line"/>
      <point x="50" y="690" type="line"/>
      <point x="91" y="690" type="line"/>
      <point x="294" y="390" type="line"/>
      <point x="497" y="690" type="line"/>
      <point x="538" y="690" type="line"/>
      <point x="544" y="677" type="line"/>
      <point x="322" y="355" type="line"/>
      <point x="557" y="13" type="line"/>
      <point x="551" y="0" type="line"/>
      <point x="510" y="0" type="line"/>
      <point x="294" y="321" type="line"/>
      <point x="78" y="0" type="line"/>
      <point x="37" y="0" type="line"/>
    </contour>
  </outline>
</glyph>
<glyph name="Y" format="2">
  <advance width="558"/>
  <unicode hex="0059"/>
  <anchor x="279" y="690" name="top"/>
  <anchor x="279" y="0" name="bottom"/>
  <outline>
    <contour>
      <point x="21" y="677" type="line"/>
      <point x="29" y="690" type="line"/>
      <point x="68" y="690" type="line"/>
      <point x="279" y="307" type="line"/>
      <point x="490" y="690" type="line"/>
      <point x="530" y="690" type="line"/>
      <point x="537" y="677" type="line"/>
      <point x="303" y="263" type="line"/>
      <point x="303" y="0" type="line"/>
      <point x="255" y="0" type="line"/>
      <point x="255" y="263" type="line"/>
    </contour>
  </outline>
</glyph>
<glyph name="e" format="2">
  <advance width="569"/>
  <unicode hex="0065"/>
  <anchor x="285" y="515" name="top"/>
  <anchor x="285" y="0" name="bottom"/>
  <outline>
    <contour>
      <point x="77" y="143" type="qcurve" smooth="yes"/>
      <point x="77" y="372" type="line" smooth="yes"/>
      <point x="77" y="515"/>
      <point x="220" y="515" type="qcurve" smooth="yes"/>
      <point x="350" y="515" type="line" smooth="yes"/>
      <point x="492" y="515"/>
      <point x="492" y="372" type="qcurve" smooth="yes"/>
      <point x="492" y="239" type="line"/>
      <point x="122" y="239" type="line"/>
      <point x="122" y="133" type="line" smooth="yes"/>
      <point x="122" y="40"/>
      <point x="215" y="40" type="qcurve" smooth="yes"/>
      <point x="472" y="40" type="line"/>
      <point x="472" y="21" type="line"/>
      <point x="444" y="0" type="line"/>
      <point x="220" y="0" type="line" smooth="yes"/>
      <point x="77" y="0"/>
    </contour>
    <contour>
      <point x="122" y="279" type="line"/>
      <point x="447" y="279" type="line"/>
      <point x="447" y="382" type="line" smooth="yes"/>
      <point x="447" y="475"/>
      <point x="354" y="475" type="qcurve" smooth="yes"/>
      <point x="215" y="475" type="line" smooth="yes"/>
      <point x="122" y="475"/>
      <point x="122" y="382" type="qcurve" smooth="yes"/>
    </contour>
  </outline>
</glyph>
<glyph name="g" format="2">
  <advance width="582"/>
  <unicode hex="0067"/>
  <anchor x="287" y="515" name="top"/>
  <anchor x="287" y="-200" name="bottom"/>
  <outline>
    <contour>
      <point x="79" y="143" type="qcurve" smooth="yes"/>
      <point x="79" y="372" type="line" smooth="yes"/>
      <point x="79" y="515"/>
      <point x="222" y="515" type="qcurve" smooth="yes"/>
      <point x="495" y="515" type="line"/>
      <point x="495" y="-57" type="line" smooth="yes"/>
      <point x="495" y="-200"/>
      <point x="352" y="-200" type="qcurve" smooth="yes"/>
      <point x="144" y="-200" type="line"/>
      <point x="116" y="-179" type="line"/>
      <point x="116" y="-160" type="line"/>
      <point x="357" y="-160" type="line" smooth="yes"/>
      <point x="450" y="-160"/>
      <point x="450" y="-67" type="qcurve" smooth="yes"/>
      <point x="450" y="0" type="line"/>
      <point x="222" y="0" type="line" smooth="yes"/>
      <point x="79" y="0"/>
    </contour>
    <contour>
      <point x="124" y="133" type="line" smooth="yes"/>
      <point x="124" y="40"/>
      <point x="217" y="40" type="qcurve" smooth="yes"/>
      <point x="450" y="40" type="line"/>
      <point x="450" y="475" type="line"/>
      <point x="217" y="475" type="line" smooth="yes"/>
      <point x="124" y="475"/>
      <point x="124" y="382" type="qcurve" smooth="yes"/>
    </contour>
  </outline>
</glyph>
<glyph name="i" format="2">
  <advance width="215"/>
  <unicode hex="0069"/>
  <anchor x="107" y="687" name="top"/>
  <anchor x="107" y="0" name="bottom"/>
  <outline>
    <contour>
      <point x="80" y="618" type="line"/>
      <point x="80" y="687" type="line"/>
      <point x="135" y="687" type="line"/>
      <point x="135" y="618" type="line"/>
    </contour>
    <contour>
      <point x="85" y="0" type="line"/>
      <point x="85" y="515" type="line"/>
      <point x="130" y="515" type="line"/>
      <point x="130" y="0" type="line"/>
    </contour>
  </outline>
</glyph>
<glyph name="n" format="2">
  <advance width="581"/>
  <unicode hex="006E"/>
  <anchor x="293" y="515" name="top"/>
  <anchor x="293" y="0" name="bottom"/>
  <outline>
    <contour>
      <point x="85" y="0" type="line"/>
      <point x="85" y="515" type="line"/>
      <point x="358" y="515" type="line" smooth="yes"/>
      <point x="500" y="515"/>
      <point x="500" y="372" type="qcurve" smooth="yes"/>
      <point x="500" y="0" type="line"/>
      <point x="455" y="0" type="line"/>
      <point x="455" y="382" type="line" smooth="yes"/>
      <point x="455" y="475"/>
      <point x="362" y="475" type="qcurve" smooth="yes"/>
      <point x="130" y="475" type="line"/>
      <point x="130" y="0" type="line"/>
    </contour>
  </outline>
</glyph>
<glyph name="q" format="2">
  <advance width="577"/>
  <unicode hex="0071"/>
  <anchor x="285" y="515" name="top"/>
  <anchor x="467" y="-200" name="bottom"/>
  <outline>
    <contour>
      <point x="77" y="143" type="qcurve" smooth="yes"/>
      <point x="77" y="372" type="line" smooth="yes"/>
      <point x="77" y="515"/>
      <point x="220" y="515" type="qcurve" smooth="yes"/>
      <point x="492" y="515" type="line"/>
      <point x="492" y="-200" type="line"/>
      <point x="447" y="-200" type="line"/>
      <point x="447" y="0" type="line"/>
      <point x="220" y="0" type="line" smooth="yes"/>
      <point x="77" y="0"/>
    </contour>
    <contour>
      <point x="122" y="133" type="line" smooth="yes"/>
      <point x="122" y="40"/>
      <point x="215" y="40" type="qcurve" smooth="yes"/>
      <point x="447" y="40" type="line"/>
      <point x="447" y="475" type="line"/>
      <point x="215" y="475" type="line" smooth="yes"/>
      <point x="122" y="475"/>
      <point x="122" y="382" type="qcurve" smooth="yes"/>
    </contour>
  </outline>
</glyph>
<glyph name="r" format="2">
  <advance width="353"/>
  <unicode hex="0072"/>
  <anchor x="201" y="515" name="top"/>
  <anchor x="103" y="0" name="bottom"/>
  <outline>
    <contour>
      <point x="81" y="0" type="line"/>
      <point x="81" y="460" type="line"/>
      <point x="115" y="515"/>
      <point x="204" y="515" type="qcurve" smooth="yes"/>
      <point x="299" y="515" type="line"/>
      <point x="327" y="494" type="line"/>
      <point x="327" y="475" type="line"/>
      <point x="199" y="475" type="line" smooth="yes"/>
      <point x="149" y="475"/>
      <point x="126" y="448" type="qcurve"/>
      <point x="126" y="0" type="line"/>
    </contour>
  </outline>
</glyph>
<glyph name="z" format="2">
  <advance width="505"/>
  <unicode hex="007A"/>
  <anchor x="253" y="515" name="top"/>
  <anchor x="253" y="0" name="bottom"/>
  <outline>
    <contour>
      <point x="55" y="0" type="line"/>
      <point x="55" y="37" type="line"/>
      <point x="385" y="475" type="line"/>
      <point x="65" y="475" type="line"/>
      <point x="65" y="515" type="line"/>
      <point x="440" y="515" type="line"/>
      <point x="440" y="478" type="line"/>
      <point x="110" y="40" type="line"/>
      <point x="450" y="40" type="line"/>
      <point x="450" y="0" type="line"/>
    </contour>
  </outline>
</glyph>
<glyph name="sterling" format="2">
  <advance width="578"/>
  <unicode hex="00A3"/>
  <outline>
    <contour>
      <point x="70" y="0" type="line"/>
      <point x="70" y="44" type="line"/>
      <point x="161" y="44" type="line"/>
      <point x="161" y="326" type="line"/>
      <point x="70" y="326" type="line"/>
      <point x="70" y="364" type="line"/>
      <point x="161" y="364" type="line"/>
      <point x="161" y="546" type="line" smooth="yes"/>
      <point x="161" y="690"/>
      <point x="305" y="690" type="qcurve" smooth="yes"/>
      <point x="466" y="690" type="line"/>
      <point x="498" y="665" type="line"/>
      <point x="498" y="646" type="line"/>
      <point x="300" y="646" type="line" smooth="yes"/>
      <point x="209" y="646"/>
      <point x="209" y="556" type="qcurve" smooth="yes"/>
      <point x="209" y="364" type="line"/>
      <point x="412" y="364" type="line"/>
      <point x="412" y="326" type="line"/>
      <point x="209" y="326" type="line"/>
      <point x="209" y="44" type="line"/>
      <point x="518" y="44" type="line"/>
      <point x="518" y="0" type="line"/>
    </contour>
  </outline>
</glyph>
<glyph name="degree" format="2">
  <advance width="409"/>
  <unicode hex="00B0"/>
  <outline>
    <contour>
      <point x="65" y="456" type="qcurve" smooth="yes"/>
      <point x="65" y="604" type="line" smooth="yes"/>
      <point x="65" y="690"/>
      <point x="151" y="690" type="qcurve" smooth="yes"/>
      <point x="258" y="690" type="line" smooth="yes"/>
      <point x="344" y="690"/>
      <point x="344" y="604" type="qcurve" smooth="yes"/>
      <point x="344" y="456" type="line" smooth="yes"/>
      <point x="344" y="370"/>
      <point x="258" y="370" type="qcurve" smooth="yes"/>
      <point x="151" y="370" type="line" smooth="yes"/>
      <point x="65" y="370"/>
    </contour>
    <contour>
      <point x="100" y="451" type="line" smooth="yes"/>
      <point x="100" y="401"/>
      <point x="150" y="401" type="qcurve" smooth="yes"/>
      <point x="259" y="401" type="line" smooth="yes"/>
      <point x="309" y="401"/>
      <point x="309" y="451" type="qcurve" smooth="yes"/>
      <point x="309" y="609" type="line" smooth="yes"/>
      <point x="309" y="659"/>
      <point x="259" y="659" type="qcurve" smooth="yes"/>
      <point x="150" y="659" type="line" smooth="yes"/>
      <point x="100" y="659"/>
      <point x="100" y="609" type="qcurve" smooth="yes"/>
    </contour>
  </outline>
</glyph>
<glyph name="uni00B3" format="2">
  <advance width="356"/>
  <unicode hex="00B3"/>
  <outline>
    <contour>
      <point x="50" y="301" type="line"/>
      <point x="50" y="318" type="line"/>
      <point x="229" y="318" type="line" smooth="yes"/>
      <point x="275" y="318"/>
      <point x="275" y="364" type="qcurve" smooth="yes"/>
      <point x="275" y="432" type="line" smooth="yes"/>
      <point x="275" y="478"/>
      <point x="229" y="478" type="qcurve" smooth="yes"/>
      <point x="94" y="478" type="line"/>
      <point x="94" y="512" type="line"/>
      <point x="229" y="512" type="line" smooth="yes"/>
      <point x="275" y="512"/>
      <point x="275" y="558" type="qcurve" smooth="yes"/>
      <point x="275" y="610" type="line" smooth="yes"/>
      <point x="275" y="656"/>
      <point x="229" y="656" type="qcurve" smooth="yes"/>
      <point x="56" y="656" type="line"/>
      <point x="56" y="672" type="line"/>
      <point x="79" y="690" type="line"/>
      <point x="227" y="690" type="line" smooth="yes"/>
      <point x="313" y="690"/>
      <point x="313" y="604" type="qcurve" smooth="yes"/>
      <point x="313" y="565" type="line" smooth="yes"/>
      <point x="313" y="538"/>
      <point x="296" y="521" type="qcurve" smooth="yes"/>
      <point x="273" y="498" type="line"/>
      <point x="296" y="475" type="line" smooth="yes"/>
      <point x="313" y="458"/>
      <point x="313" y="431" type="qcurve" smooth="yes"/>
      <point x="313" y="369" type="line" smooth="yes"/>
      <point x="313" y="284"/>
      <point x="227" y="284" type="qcurve" smooth="yes"/>
      <point x="73" y="284" type="line"/>
    </contour>
  </outline>
</glyph>
<glyph name="ordmasculine" format="2">
  <advance width="428"/>
  <unicode hex="00BA"/>
  <outline>
    <contour>
      <point x="54" y="388" type="qcurve" smooth="yes"/>
      <point x="54" y="604" type="line" smooth="yes"/>
      <point x="54" y="690"/>
      <point x="140" y="690" type="qcurve" smooth="yes"/>
      <point x="288" y="690" type="line" smooth="yes"/>
      <point x="374" y="690"/>
      <point x="374" y="604" type="qcurve" smooth="yes"/>
      <point x="374" y="388" type="line" smooth="yes"/>
      <point x="374" y="302"/>
      <point x="288" y="302" type="qcurve" smooth="yes"/>
      <point x="140" y="302" type="line" smooth="yes"/>
      <point x="54" y="302"/>
    </contour>
    <contour>
      <point x="91" y="382" type="line" smooth="yes"/>
      <point x="91" y="336"/>
      <point x="137" y="336" type="qcurve" smooth="yes"/>
      <point x="290" y="336" type="line" smooth="yes"/>
      <point x="336" y="336"/>
      <point x="336" y="382" type="qcurve" smooth="yes"/>
      <point x="336" y="610" type="line" smooth="yes"/>
      <point x="336" y="656"/>
      <point x="290" y="656" type="qcurve" smooth="yes"/>
      <point x="137" y="656" type="line" smooth="yes"/>
      <point x="91" y="656"/>
      <point x="91" y="610" type="qcurve" smooth="yes"/>
    </contour>
  </outline>
</glyph>
<glyph name="Eth" format="2">
  <advance width="682"/>
  <unicode hex="00D0"/>
  <outline>
    <contour>
      <point x="20" y="326" type="line"/>
      <point x="20" y="364" type="line"/>
      <point x="101" y="364" type="line"/>
      <point x="101" y="690" type="line"/>
      <point x="401" y="690" type="line" smooth="yes"/>
      <point x="607" y="690"/>
      <point x="607" y="484" type="qcurve" smooth="yes"/>
      <point x="607" y="206" type="line" smooth="yes"/>
      <point x="607" y="0"/>
      <point x="401" y="0" type="qcurve" smooth="yes"/>
      <point x="101" y="0" type="line"/>
      <point x="101" y="326" type="line"/>
    </contour>
    <contour>
      <point x="149" y="44" type="line"/>
      <point x="401" y="44" type="line" smooth="yes"/>
      <point x="559" y="44"/>
      <point x="559" y="202" type="qcurve" smooth="yes"/>
      <point x="559" y="488" type="line" smooth="yes"/>
      <point x="559" y="646"/>
      <point x="401" y="646" type="qcurve" smooth="yes"/>
      <point x="149" y="646" type="line"/>
      <point x="149" y="364" type="line"/>
      <point x="354" y="364" type="line"/>
      <point x="354" y="326" type="line"/>
      <point x="149" y="326" type="line"/>
    </contour>
  </outline>
</glyph>
<glyph name="Oslash" format="2">
  <advance width="695"/>
  <unicode hex="00D8"/>
  <anchor x="348" y="690" name="top"/>
  <anchor x="348" y="0" name="bottom"/>
  <outline>
    <contour>
      <point x="85" y="144" type="qcurve" smooth="yes"/>
      <point x="85" y="546" type="line" smooth="yes"/>
      <point x="85" y="690"/>
      <point x="229" y="690" type="qcurve" smooth="yes"/>
      <point x="466" y="690" type="line" smooth="yes"/>
      <point x="610" y="690"/>
      <point x="610" y="546" type="qcurve" smooth="yes"/>
      <point x="610" y="144" type="line" smooth="yes"/>
      <point x="610" y="0"/>
      <point x="466" y="0" type="qcurve" smooth="yes"/>
      <point x="229" y="0" type="line" smooth="yes"/>
      <point x="85" y="0"/>
    </contour>
    <contour>
      <point x="133" y="180" type="line"/>
      <point x="561" y="566" type="line"/>
      <point x="557" y="646"/>
      <point x="472" y="646" type="qcurve" smooth="yes"/>
      <point x="224" y="646" type="line" smooth="yes"/>
      <point x="133" y="646"/>
      <point x="133" y="556" type="qcurve" smooth="yes"/>
    </contour>
    <contour>
      <point x="134" y="124" type="line"/>
      <point x="138" y="44"/>
      <point x="224" y="44" type="qcurve" smooth="yes"/>
      <point x="472" y="44" type="line" smooth="yes"/>
      <point x="562" y="44"/>
      <point x="562" y="134" type="qcurve" smooth="yes"/>
      <point x="562" y="510" type="line"/>
    </contour>
  </outline>
</glyph>
<glyph name="lslash" format="2">
  <advance width="241"/>
  <unicode hex="0142"/>
  <outline>
    <contour>
      <point x="8" y="327" type="line"/>
      <point x="86" y="372" type="line"/>
      <point x="86" y="740" type="line"/>
      <point x="131" y="740" type="line"/>
      <point x="131" y="398" type="line"/>
      <point x="212" y="445" type="line"/>
      <point x="230" y="413" type="line"/>
      <point x="131" y="357" type="line"/>
      <point x="131" y="108" type="line" smooth="yes"/>
      <point x="131" y="34"/>
      <point x="205" y="32" type="qcurve"/>
      <point x="205" y="-7" type="line"/>
      <point x="86" y="-7"/>
      <point x="86" y="112" type="qcurve" smooth="yes"/>
      <point x="86" y="331" type="line"/>
      <point x="27" y="295" type="line"/>
    </contour>
  </outline>
</glyph>
<glyph name="oe" format="2">
  <advance width="918"/>
  <unicode hex="0153"/>
  <outline>
    <contour>
      <point x="77" y="143" type="qcurve" smooth="yes"/>
      <point x="77" y="372" type="line" smooth="yes"/>
      <point x="77" y="515"/>
      <point x="220" y="515" type="qcurve" smooth="yes"/>
      <point x="344" y="515" type="line" smooth="yes"/>
      <point x="429" y="515"/>
      <point x="464" y="463" type="qcurve"/>
      <point x="499" y="515"/>
      <point x="584" y="515" type="qcurve" smooth="yes"/>
      <point x="698" y="515" type="line" smooth="yes"/>
      <point x="841" y="515"/>
      <point x="841" y="372" type="qcurve" smooth="yes"/>
      <point x="841" y="239" type="line"/>
      <point x="486" y="239" type="line"/>
      <point x="486" y="133" type="line" smooth="yes"/>
      <point x="486" y="40"/>
      <point x="579" y="40" type="qcurve" smooth="yes"/>
      <point x="821" y="40" type="line"/>
      <point x="821" y="21" type="line"/>
      <point x="793" y="0" type="line"/>
      <point x="584" y="0" type="line" smooth="yes"/>
      <point x="499" y="0"/>
      <point x="464" y="52" type="qcurve"/>
      <point x="429" y="0"/>
      <point x="344" y="0" type="qcurve" smooth="yes"/>
      <point x="220" y="0" type="line" smooth="yes"/>
      <point x="77" y="0"/>
    </contour>
    <contour>
      <point x="122" y="133" type="line" smooth="yes"/>
      <point x="122" y="40"/>
      <point x="215" y="40" type="qcurve" smooth="yes"/>
      <point x="348" y="40" type="line" smooth="yes"/>
      <point x="441" y="40"/>
      <point x="441" y="133" type="qcurve" smooth="yes"/>
      <point x="441" y="382" type="line" smooth="yes"/>
      <point x="441" y="475"/>
      <point x="348" y="475" type="qcurve" smooth="yes"/>
      <point x="215" y="475" type="line" smooth="yes"/>
      <point x="122" y="475"/>
      <point x="122" y="382" type="qcurve" smooth="yes"/>
    </contour>
    <contour>
      <point x="486" y="279" type="line"/>
      <point x="796" y="279" type="line"/>
      <point x="796" y="382" type="line" smooth="yes"/>
      <point x="796" y="475"/>
      <point x="703" y="475" type="qcurve" smooth="yes"/>
      <point x="579" y="475" type="line" smooth="yes"/>
      <point x="486" y="475"/>
      <point x="486" y="382" type="qcurve" smooth="yes"/>
    </contour>
  </outline>
</glyph>
<glyph name="uni0300" format="2">
  <unicode hex="0300"/>
  <anchor x="-284" y="515" name="_top"/>
  <outline>
    <contour>
      <point x="-392" y="701" type="line"/>
      <point x="-359" y="734" type="line"/>
      <point x="-235" y="597" type="line"/>
      <point x="-263" y="570" type="line"/>
    </contour>
  </outline>
</glyph>
<glyph name="uni0306" format="2">
  <unicode hex="0306"/>
  <anchor x="-284" y="515" name="_top"/>
  <outline>
    <contour>
      <point x="-401" y="663" type="qcurve" smooth="yes"/>
      <point x="-401" y="717" type="line"/>
      <point x="-362" y="717" type="line"/>
      <point x="-362" y="662" type="line" smooth="yes"/>
      <point x="-362" y="638"/>
      <point x="-338" y="638" type="qcurve" smooth="yes"/>
      <point x="-229" y="638" type="line" smooth="yes"/>
      <point x="-205" y="638"/>
      <point x="-205" y="662" type="qcurve" smooth="yes"/>
      <point x="-205" y="717" type="line"/>
      <point x="-166" y="717" type="line"/>
      <point x="-166" y="663" type="line" smooth="yes"/>
      <point x="-166" y="599"/>
      <point x="-231" y="599" type="qcurve" smooth="yes"/>
      <point x="-337" y="599" type="line" smooth="yes"/>
      <point x="-401" y="599"/>
    </contour>
  </outline>
</glyph>
<glyph name="uni0307" format="2">
  <unicode hex="0307"/>
  <anchor x="-284" y="515" name="_top"/>
  <outline>
    <contour>
      <point x="-311" y="618" type="line"/>
      <point x="-311" y="687" type="line"/>
      <point x="-256" y="687" type="line"/>
      <point x="-256" y="618" type="line"/>
    </contour>
  </outline>
</glyph>
<glyph name="uni0308" format="2">
  <unicode hex="0308"/>
  <anchor x="-284" y="515" name="_top"/>
  <outline>
    <contour>
      <point x="-395" y="620" type="line"/>
      <point x="-395" y="686" type="line"/>
      <point x="-340" y="686" type="line"/>
      <point x="-340" y="620" type="line"/>
    </contour>
    <contour>
      <point x="-228" y="620" type="line"/>
      <point x="-228" y="686" type="line"/>
      <point x="-173" y="686" type="line"/>
      <point x="-173" y="620" type="line"/>
    </contour>
  </outline>
</glyph>
<glyph name="uni030B" format="2">
  <unicode hex="030B"/>
  <anchor x="-284" y="515" name="_top"/>
  <outline>
    <contour>
      <point x="-390" y="596" type="line"/>
      <point x="-280" y="735" type="line"/>
      <point x="-243" y="702" type="line"/>
      <point x="-362" y="570" type="line"/>
    </contour>
    <contour>
      <point x="-237" y="596" type="line"/>
      <point x="-127" y="735" type="line"/>
      <point x="-90" y="702" type="line"/>
      <point x="-209" y="570" type="line"/>
    </contour>
  </outline>
</glyph>
<glyph name="uni030C" format="2">
  <unicode hex="030C"/>
  <anchor x="-284" y="515" name="_top"/>
  <outline>
    <contour>
      <point x="-410" y="697" type="line"/>
      <point x="-383" y="725" type="line"/>
      <point x="-284" y="631" type="line"/>
      <point x="-184" y="725" type="line"/>
      <point x="-157" y="697" type="line"/>
      <point x="-284" y="573" type="line"/>
    </contour>
  </outline>
</glyph>
<glyph name="uni0326" format="2">
  <advance width="0"/>
  <unicode hex="0326"/>
  <outline>
    <contour>
      <point x="-343" y="-187" type="line"/>
      <point x="-306" y="-50" type="line"/>
      <point x="-260" y="-50" type="line"/>
      <point x="-254" y="-60" type="line"/>
      <point x="-307" y="-197" type="line"/>
    </contour>
  </outline>
</glyph>
<glyph name="pi" format="2">
  <advance width="585"/>
  <unicode hex="03C0"/>
  <outline>
    <contour>
      <point x="85" y="0" type="line"/>
      <point x="85" y="515" type="line"/>
      <point x="500" y="515" type="line"/>
      <point x="500" y="0" type="line"/>
      <point x="455" y="0" type="line"/>
      <point x="455" y="475" type="line"/>
      <point x="130" y="475" type="line"/>
      <point x="130" y="0" type="line"/>
    </contour>
  </outline>
</glyph>
<glyph name="bullet" format="2">
  <advance width="355"/>
  <unicode hex="2022"/>
  <outline>
    <contour>
      <point x="98" y="276" type="line"/>
      <point x="98" y="444" type="line"/>
      <point x="258" y="444" type="line"/>
      <point x="258" y="276" type="line"/>
    </contour>
  </outline>
</glyph>
<glyph name="uni2074" format="2">
  <advance width="356"/>
  <unicode hex="2074"/>
  <outline>
    <contour>
      <point x="44" y="368" type="line"/>
      <point x="44" y="398" type="line"/>
      <point x="185" y="690" type="line"/>
      <point x="217" y="690" type="line"/>
      <point x="223" y="680" type="line"/>
      <point x="89" y="402" type="line"/>
      <point x="275" y="402" type="line"/>
      <point x="275" y="550" type="line"/>
      <point x="313" y="550" type="line"/>
      <point x="313" y="284" type="line"/>
      <point x="275" y="284" type="line"/>
      <point x="275" y="368" type="line"/>
    </contour>
  </outline>
</glyph>
<glyph name="radical" format="2">
  <advance width="561"/>
  <unicode hex="221A"/>
  <outline>
    <contour>
      <point x="20" y="356" type="line"/>
      <point x="20" y="400" type="line"/>
      <point x="148" y="400" type="line"/>
      <point x="267" y="46" type="line"/>
      <point x="523" y="786" type="line"/>
      <point x="561" y="772" type="line"/>
      <point x="288" y="-10" type="line"/>
      <point x="244" y="-10" type="line"/>
      <point x="118" y="356" type="line"/>
    </contour>
  </outline>
</glyph>
<glyph name="lessequal" format="2">
  <advance width="578"/>
  <unicode hex="2264"/>
  <outline>
    <contour>
      <point x="66" y="0" type="line"/>
      <point x="66" y="41" type="line"/>
      <point x="512" y="41" type="line"/>
      <point x="512" y="0" type="line"/>
    </contour>
    <contour>
      <point x="64" y="299" type="line"/>
      <point x="64" y="346" type="line"/>
      <point x="490" y="550" type="line"/>
      <point x="508" y="512" type="line"/>
      <point x="103" y="323" type="line"/>
      <point x="508" y="133" type="line"/>
      <point x="490" y="95" type="line"/>
    </contour>
  </outline>
</glyph>
<glyph name="uni0300.cap" format="2">
  <advance width="0"/>
  <outline>
    <contour>
      <point x="-423" y="866" type="line"/>
      <point x="-390" y="899" type="line"/>
      <point x="-266" y="762" type="line"/>
      <point x="-294" y="735" type="line"/>
    </contour>
  </outline>
</glyph>
<glyph name="uni0301.cap" format="2">
  <anchor x="-314" y="690" name="_top"/>
  <outline>
    <contour>
      <point x="-362" y="762" type="line"/>
      <point x="-238" y="899" type="line"/>
      <point x="-205" y="866" type="line"/>
      <point x="-334" y="735" type="line"/>
    </contour>
  </outline>
</glyph>
<glyph name="uni0303.cap" format="2">
  <anchor x="-314" y="690" name="_top"/>
  <outline>
    <contour>
      <point x="-456" y="795" type="line"/>
      <point x="-411" y="840" type="line" smooth="yes"/>
      <point x="-387" y="863"/>
      <point x="-335" y="863"/>
      <point x="-313" y="840" type="qcurve" smooth="yes"/>
      <point x="-289" y="816" type="line" smooth="yes"/>
      <point x="-277" y="804"/>
      <point x="-257" y="804"/>
      <point x="-245" y="816" type="qcurve" smooth="yes"/>
      <point x="-200" y="861" type="line"/>
      <point x="-173" y="834" type="line"/>
      <point x="-218" y="789" type="line" smooth="yes"/>
      <point x="-241" y="766"/>
      <point x="-293" y="766"/>
      <point x="-316" y="789" type="qcurve" smooth="yes"/>
      <point x="-340" y="813" type="line" smooth="yes"/>
      <point x="-351" y="825"/>
      <point x="-371" y="825"/>
      <point x="-384" y="813" type="qcurve" smooth="yes"/>
      <point x="-429" y="768" type="line"/>
    </contour>
  </outline>
</glyph>
<glyph name="uni0304.cap" format="2">
  <anchor x="-314" y="690" name="_top"/>
  <outline>
    <contour>
      <point x="-434" y="794" type="line"/>
      <point x="-434" y="839" type="line"/>
      <point x="-194" y="839" type="line"/>
      <point x="-194" y="794" type="line"/>
    </contour>
  </outline>
</glyph>
<glyph name="uni0306.cap" format="2">
  <anchor x="-314" y="690" name="_top"/>
  <outline>
    <contour>
      <point x="-431" y="828" type="qcurve" smooth="yes"/>
      <point x="-431" y="882" type="line"/>
      <point x="-392" y="882" type="line"/>
      <point x="-392" y="827" type="line" smooth="yes"/>
      <point x="-392" y="803"/>
      <point x="-368" y="803" type="qcurve" smooth="yes"/>
      <point x="-259" y="803" type="line" smooth="yes"/>
      <point x="-235" y="803"/>
      <point x="-235" y="827" type="qcurve" smooth="yes"/>
      <point x="-235" y="882" type="line"/>
      <point x="-196" y="882" type="line"/>
      <point x="-196" y="828" type="line" smooth="yes"/>
      <point x="-196" y="764"/>
      <point x="-261" y="764" type="qcurve" smooth="yes"/>
      <point x="-367" y="764" type="line" smooth="yes"/>
      <point x="-431" y="764"/>
    </contour>
  </outline>
</glyph>
<glyph name="uni0307.cap" format="2">
  <anchor x="-314" y="690" name="_top"/>
  <outline>
    <contour>
      <point x="-342" y="783" type="line"/>
      <point x="-342" y="852" type="line"/>
      <point x="-287" y="852" type="line"/>
      <point x="-287" y="783" type="line"/>
    </contour>
  </outline>
</glyph>
